# xmcd
#
# Track frame offsets:
#	150
#	20278
#	43551
#	65417
#	89226
#	107837
#	126387
#	148796
#	167497
#	192212
#	213449
#	236617
#	257221
#	278978
#	303230
#	329640
#
# Disc length: 4740 seconds
#
# Revision: 0
# Processed by: cddbd v1.5.2PL0 Copyright (c) Steve Scherf et al.
# Submitted via: EasyCDDAExtractor 10.0.2.1
#
DISCID=f3128210
DTITLE=Gerald Levert - The Best of Levert
DYEAR=2006
DGENRE=R&B
TTITLE0=Funny
TTITLE1=The G Spot
TTITLE2=Dream with No Love
TTITLE3=Baby U Are
TTITLE4=Application (I'm Lookin 4 a New Love)
TTITLE5=Groove On
TTITLE6=Let the Juices Flow
TTITLE7=I'd Give Anything
TTITLE8=Answering Service
TTITLE9=Men Like Us
TTITLE10=That's the Way I Feel About You feat. Mary J. Blige
TTITLE11=What About Me
TTITLE12=Two of a Kind feat. Eddie Levert Sr.
TTITLE13=Taking Everything
TTITLE14=Pop Goes My Mind
TTITLE15=Baby Hold on to Me feat. Eddie Levert Sr.
EXTD=
EXTT0=
EXTT1=
EXTT2=
EXTT3=
EXTT4=
EXTT5=
EXTT6=
EXTT7=
EXTT8=
EXTT9=
EXTT10=
EXTT11=
EXTT12=
EXTT13=
EXTT14=
EXTT15=
PLAYORDER=
